<?xml version="1.0" standalone="no"?>
<!DOCTYPE svg PUBLIC "-//W3C//DTD SVG 20010904//EN"
 "http://www.w3.org/TR/2001/REC-SVG-20010904/DTD/svg10.dtd">
<svg version="1.0" xmlns="http://www.w3.org/2000/svg"
 width="225.000000pt" height="225.000000pt" viewBox="0 0 225.000000 225.000000"
 preserveAspectRatio="xMidYMid meet">

<g transform="translate(0.000000,225.000000) scale(0.100000,-0.100000)"
fill="#000000" stroke="none">
<path d="M163 948 c8 -104 29 -128 108 -128 28 0 59 -5 70 -10 34 -19 105
-184 94 -220 -4 -11 -24 -41 -46 -66 -54 -63 -49 -78 71 -196 115 -114 128
-118 193 -59 23 22 54 42 68 46 34 8 188 -55 209 -86 8 -13 17 -50 20 -82 7
-89 23 -98 177 -98 69 0 131 5 146 12 32 14 47 48 47 107 1 60 18 81 98 116
105 46 124 45 182 -3 68 -58 90 -55 165 17 101 98 145 151 145 172 0 11 -19
41 -42 66 -53 58 -54 89 -5 197 39 85 56 97 132 97 64 0 84 21 96 105 5 38 7
75 5 82 -4 10 -56 13 -230 13 l-224 0 -7 -56 c-29 -237 -186 -411 -410 -457
-74 -15 -181 -9 -253 14 -180 57 -320 227 -346 420 l-10 79 -230 0 -229 0 6
-82z"/>
</g>
</svg>
